{
	"patcher" : 	{
		"fileversion" : 1,
		"appversion" : 		{
			"major" : 6,
			"minor" : 1,
			"revision" : 8,
			"architecture" : "x86"
		}
,
		"rect" : [ 50.0, 95.0, 640.0, 480.0 ],
		"bglocked" : 0,
		"openinpresentation" : 0,
		"default_fontsize" : 12.0,
		"default_fontface" : 0,
		"default_fontname" : "Arial",
		"gridonopen" : 0,
		"gridsize" : [ 15.0, 15.0 ],
		"gridsnaponopen" : 0,
		"statusbarvisible" : 2,
		"toolbarvisible" : 1,
		"boxanimatetime" : 200,
		"imprint" : 0,
		"enablehscroll" : 1,
		"enablevscroll" : 1,
		"devicewidth" : 0.0,
		"description" : "",
		"digest" : "",
		"tags" : "",
		"boxes" : [ 			{
				"box" : 				{
					"comment" : "(OSC.packet) Mouse infopacket",
					"id" : "obj-2",
					"maxclass" : "outlet",
					"numinlets" : 1,
					"numoutlets" : 0,
					"patching_rect" : [ 386.46759, 819.622559, 25.0, 25.0 ],
					"presentation_rect" : [ 440.936188, 560.248352, 0.0, 0.0 ]
				}

			}
, 			{
				"box" : 				{
					"comment" : "(Float) Speed of waveform(s)",
					"id" : "obj-1",
					"maxclass" : "outlet",
					"numinlets" : 1,
					"numoutlets" : 0,
					"patching_rect" : [ 153.000122, 819.622559, 25.0, 25.0 ]
				}

			}
, 			{
				"box" : 				{
					"fontname" : "Helvetica Neue",
					"fontsize" : 12.0,
					"id" : "obj-17",
					"maxclass" : "flonum",
					"maximum" : 1.5,
					"minimum" : 0.5,
					"numinlets" : 1,
					"numoutlets" : 2,
					"outlettype" : [ "float", "bang" ],
					"parameter_enable" : 0,
					"patching_rect" : [ 222.000122, 754.0, 50.0, 20.0 ]
				}

			}
, 			{
				"box" : 				{
					"fontname" : "Helvetica Neue",
					"fontsize" : 12.0,
					"id" : "obj-251",
					"maxclass" : "message",
					"numinlets" : 2,
					"numoutlets" : 1,
					"outlettype" : [ "" ],
					"patching_rect" : [ 344.697662, 741.031311, 32.5, 18.0 ],
					"text" : "1"
				}

			}
, 			{
				"box" : 				{
					"fontname" : "Helvetica Neue",
					"fontsize" : 12.0,
					"id" : "obj-200",
					"maxclass" : "newobj",
					"numinlets" : 1,
					"numoutlets" : 2,
					"outlettype" : [ "FullPacket", "FullPacket" ],
					"patching_rect" : [ 15.0, 454.537231, 108.0, 20.0 ],
					"text" : "o.if /shift == down"
				}

			}
, 			{
				"box" : 				{
					"fontname" : "Arial",
					"fontsize" : 12.0,
					"id" : "obj-199",
					"maxclass" : "flonum",
					"maximum" : 2.0,
					"minimum" : 0.5,
					"numinlets" : 1,
					"numoutlets" : 2,
					"outlettype" : [ "float", "bang" ],
					"parameter_enable" : 0,
					"patching_rect" : [ 153.000122, 754.0, 50.0, 20.0 ]
				}

			}
, 			{
				"box" : 				{
					"fontname" : "Helvetica Neue",
					"fontsize" : 12.0,
					"id" : "obj-198",
					"linecount" : 2,
					"maxclass" : "message",
					"numinlets" : 2,
					"numoutlets" : 1,
					"outlettype" : [ "" ],
					"patching_rect" : [ 153.000122, 708.0, 50.0, 32.0 ],
					"text" : "1.772656"
				}

			}
, 			{
				"box" : 				{
					"fontname" : "Helvetica Neue",
					"fontsize" : 12.0,
					"id" : "obj-190",
					"maxclass" : "newobj",
					"numinlets" : 1,
					"numoutlets" : 5,
					"outlettype" : [ "", "", "", "", "FullPacket" ],
					"patching_rect" : [ 15.0, 677.0, 295.0, 20.0 ],
					"text" : "o.route /horiz/raw /vert/raw /horiz/scaled /vert/scaled"
				}

			}
, 			{
				"box" : 				{
					"fontsize" : 12.0,
					"id" : "obj-27",
					"linecount" : 6,
					"maxclass" : "o.expr.codebox",
					"numinlets" : 1,
					"numoutlets" : 2,
					"outlettype" : [ "FullPacket", "FullPacket" ],
					"patching_rect" : [ 15.0, 488.709717, 330.0, 100.0 ],
					"text" : "/horiz/raw = scale( /horizontal, 0, /screenDim[[0]], 0., 1. ),\n/vert/raw = scale( /vertical, 0, /screenDim[[1]], 0., 1. ),\n/horiz/scaled = /horiz/raw *1.5 +.5,\n/vert/scaled = /vert/raw + .5",
					"textcolor" : [ 0.0, 0.0, 0.0, 1.0 ]
				}

			}
, 			{
				"box" : 				{
					"fontname" : "Helvetica Neue",
					"fontsize" : 12.0,
					"id" : "obj-24",
					"maxclass" : "newobj",
					"numinlets" : 2,
					"numoutlets" : 2,
					"outlettype" : [ "FullPacket", "FullPacket" ],
					"patching_rect" : [ 15.0, 54.797218, 182.98439, 20.0 ],
					"text" : "o.change"
				}

			}
, 			{
				"box" : 				{
					"fontsize" : 12.0,
					"id" : "obj-12",
					"maxclass" : "o.display",
					"numinlets" : 1,
					"numoutlets" : 1,
					"outlettype" : [ "" ],
					"patching_rect" : [ 15.0, 83.051323, 272.984375, 34.0 ],
					"textcolor" : [ 0.0, 0.0, 0.0, 1.0 ]
				}

			}
, 			{
				"box" : 				{
					"fontname" : "Helvetica Neue",
					"fontsize" : 12.0,
					"id" : "obj-9",
					"maxclass" : "newobj",
					"numinlets" : 0,
					"numoutlets" : 1,
					"outlettype" : [ "" ],
					"patching_rect" : [ 15.0, 15.0, 225.98439, 20.0 ],
					"text" : "m158.o.io.mouse"
				}

			}
 ],
		"lines" : [ 			{
				"patchline" : 				{
					"destination" : [ "obj-2", 0 ],
					"disabled" : 0,
					"hidden" : 0,
					"midpoints" : [ 24.5, 430.661499, 395.96759, 430.661499 ],
					"source" : [ "obj-12", 0 ]
				}

			}
, 			{
				"patchline" : 				{
					"destination" : [ "obj-200", 0 ],
					"disabled" : 0,
					"hidden" : 0,
					"source" : [ "obj-12", 0 ]
				}

			}
, 			{
				"patchline" : 				{
					"destination" : [ "obj-17", 0 ],
					"disabled" : 0,
					"hidden" : 0,
					"source" : [ "obj-190", 3 ]
				}

			}
, 			{
				"patchline" : 				{
					"destination" : [ "obj-198", 1 ],
					"disabled" : 0,
					"hidden" : 0,
					"source" : [ "obj-190", 2 ]
				}

			}
, 			{
				"patchline" : 				{
					"destination" : [ "obj-199", 0 ],
					"disabled" : 0,
					"hidden" : 0,
					"source" : [ "obj-190", 2 ]
				}

			}
, 			{
				"patchline" : 				{
					"destination" : [ "obj-1", 0 ],
					"disabled" : 0,
					"hidden" : 0,
					"source" : [ "obj-199", 0 ]
				}

			}
, 			{
				"patchline" : 				{
					"destination" : [ "obj-251", 0 ],
					"disabled" : 0,
					"hidden" : 0,
					"midpoints" : [ 113.5, 483.809509, 354.197662, 483.809509 ],
					"source" : [ "obj-200", 1 ]
				}

			}
, 			{
				"patchline" : 				{
					"destination" : [ "obj-27", 0 ],
					"disabled" : 0,
					"hidden" : 0,
					"source" : [ "obj-200", 0 ]
				}

			}
, 			{
				"patchline" : 				{
					"destination" : [ "obj-12", 0 ],
					"disabled" : 0,
					"hidden" : 0,
					"source" : [ "obj-24", 0 ]
				}

			}
, 			{
				"patchline" : 				{
					"destination" : [ "obj-1", 0 ],
					"disabled" : 0,
					"hidden" : 0,
					"source" : [ "obj-251", 0 ]
				}

			}
, 			{
				"patchline" : 				{
					"destination" : [ "obj-190", 0 ],
					"disabled" : 0,
					"hidden" : 0,
					"source" : [ "obj-27", 0 ]
				}

			}
, 			{
				"patchline" : 				{
					"destination" : [ "obj-24", 0 ],
					"disabled" : 0,
					"hidden" : 0,
					"source" : [ "obj-9", 0 ]
				}

			}
 ]
	}

}
